<!--
  Vulcano Ai — Icon set (inline-friendly)
  Usage: <svg class="icon"><use href="/assets/icons.svg#calendar"/></svg>
  Icons are monochrome and inherit currentColor.
-->
<svg xmlns="http://www.w3.org/2000/svg" style="display:none">
  <symbol id="logo" viewBox="0 0 64 64">
    <g fill="none" stroke="currentColor" stroke-width="1.5">
      <circle cx="32" cy="32" r="20"/>
      <!-- Sin latitudes horizontales para evitar eje estático -->
      <g transform="rotate(30 32 32)">
        <ellipse cx="32" cy="32" rx="20" ry="6"/>
        <ellipse cx="32" cy="32" rx="20" ry="12"/>
        <ellipse cx="32" cy="32" rx="20" ry="18"/>
      </g>
      <g transform="rotate(60 32 32)">
        <ellipse cx="32" cy="32" rx="20" ry="6"/>
        <ellipse cx="32" cy="32" rx="20" ry="12"/>
        <ellipse cx="32" cy="32" rx="20" ry="18"/>
      </g>
    </g>
  </symbol>
  <symbol id="calendar" viewBox="0 0 24 24">
    <path fill="currentColor" d="M7 2v2H5a2 2 0 0 0-2 2v2h18V6a2 2 0 0 0-2-2h-2V2h-2v2H9V2H7zm14 8H3v10a2 2 0 0 0 2 2h14a2 2 0 0 0 2-2V10zM7 14h4v4H7v-4z"/>
  </symbol>
  <symbol id="user" viewBox="0 0 24 24">
    <path fill="currentColor" d="M12 12a5 5 0 1 0-5-5 5 5 0 0 0 5 5Zm0 2c-5 0-9 2.5-9 5.5V22h18v-2.5C21 16.5 17 14 12 14Z"/>
  </symbol>
  <symbol id="source" viewBox="0 0 24 24">
    <path fill="currentColor" d="M4 3h16v2H4zM4 7h10v2H4zM4 11h16v2H4zM4 15h10v2H4zM4 19h16v2H4z"/>
  </symbol>
  <symbol id="tag" viewBox="0 0 24 24">
    <path fill="currentColor" d="M2 12l10 10 10-10L12 2 2 12zm15-3a2 2 0 1 1 0-4 2 2 0 0 1 0 4z"/>
  </symbol>
  <symbol id="globe" viewBox="0 0 24 24">
    <path fill="currentColor" d="M12 2a10 10 0 1 0 10 10A10 10 0 0 0 12 2Zm0 2c1.9 0 3.6 3.1 3.9 7H8.1C8.4 7.1 10.1 4 12 4Zm-3.9 9h7.8c-.3 3.9-2 7-3.9 7s-3.6-3.1-3.9-7Z"/>
  </symbol>
  <symbol id="robot" viewBox="0 0 24 24">
    <path fill="currentColor" d="M11 2h2v3h-2zM5 7h14a3 3 0 0 1 3 3v7a3 3 0 0 1-3 3H5a3 3 0 0 1-3-3v-7a3 3 0 0 1 3-3Zm3 3a2 2 0 1 0 2 2 2 2 0 0 0-2-2Zm8 0a2 2 0 1 0 2 2 2 2 0 0 0-2-2Z"/>
  </symbol>
  <symbol id="scale" viewBox="0 0 24 24">
    <path fill="currentColor" d="M11 3h2v2h4v2h-4v4h5l3 5H16l3-5h-5v8h3v2H7v-2h3V5H6V3h5z"/>
  </symbol>
  <symbol id="link" viewBox="0 0 24 24">
    <path fill="currentColor" d="M3.9 12a5 5 0 0 1 5-5h3v2h-3a3 3 0 0 0 0 6h3v2h-3a5 5 0 0 1-5-5Zm11.2-3h-3v2h3a3 3 0 1 1 0 6h-3v2h3a5 5 0 0 0 0-10Z"/>
  </symbol>
  <!-- Social icons (monochrome) -->
  <symbol id="whatsapp" viewBox="0 0 24 24">
    <path fill="currentColor" d="M20 3.9A9.9 9.9 0 0 0 3.5 17L3 21l4-.9A9.9 9.9 0 1 0 20 3.9ZM12 4a8 8 0 0 1 6.7 12.5l-.3.4-.3.3A8 8 0 0 1 7.2 19l-.4-.2-.4.1-1.9.4.4-2 .1-.4-.2-.4A8 8 0 0 1 12 4Zm-3.2 3.5c.2 0 .4 0 .6.4l1 2c.1.3 0 .5-.1.6l-.4.4c-.2.2-.2.5 0 .8.4.7 1 1.4 1.7 1.9.3.2.6.2.8 0l.4-.3c.2-.2.4-.2.6-.1l2 .9c.4.2.4.5.4.7-.1.7-.7 1.6-1.9 1.6-1 .1-2.6-.4-4-1.6-1.5-1.2-2.3-2.7-2.6-3.8-.3-1.2.2-2 .7-2.5.2-.2.4-.3.6-.3Z"/>
  </symbol>
  <symbol id="instagram" viewBox="0 0 24 24">
    <path fill="currentColor" d="M7 2h10a5 5 0 0 1 5 5v10a5 5 0 0 1-5 5H7a5 5 0 0 1-5-5V7a5 5 0 0 1 5-5Zm0 2a3 3 0 0 0-3 3v10a3 3 0 0 0 3 3h10a3 3 0 0 0 3-3V7a3 3 0 0 0-3-3H7Zm5 3.5A5.5 5.5 0 1 1 6.5 13 5.5 5.5 0 0 1 12 7.5Zm0 2A3.5 3.5 0 1 0 15.5 13 3.5 3.5 0 0 0 12 9.5ZM18 6a1 1 0 1 1-1 1 1 1 0 0 1 1-1Z"/>
  </symbol>
  <symbol id="x" viewBox="0 0 24 24">
    <path fill="currentColor" d="M4 3h5l4 6 6-6h1l-7 7 7 11h-5l-4-6-6 6H3l7-7z"/>
  </symbol>
  <symbol id="refresh" viewBox="0 0 24 24">
    <path fill="currentColor" d="M12 6V3l4 4-4 4V8a5 5 0 1 0 5 5h2a7 7 0 1 1-7-7z"/>
  </symbol>
  <symbol id="search" viewBox="0 0 24 24">
    <path fill="currentColor" d="M10 2a8 8 0 1 0 5.3 14l4.4 4.4 1.4-1.4-4.4-4.4A8 8 0 0 0 10 2zm0 2a6 6 0 1 1 0 12A6 6 0 0 1 10 4z"/>
  </symbol>
  <symbol id="sparkles" viewBox="0 0 24 24">
    <path fill="currentColor" d="M12 2l1.5 4.5L18 8l-4.5 1.5L12 14l-1.5-4.5L6 8l4.5-1.5L12 2zm7 7l.8 2.2L22 12l-2.2.8L19 15l-.8-2.2L16 12l2.2-.8L19 9zM5 14l.8 2.2L8 17l-2.2.8L5 20l-.8-2.2L2 17l2.2-.8L5 14z"/>
  </symbol>
</svg>
